# xmcd
# 
# Track frame offsets:
#     150
#     12105
#     26267
#     39790
#     52817
#     65637
#     77037
#     96617
#     109710
#     121382
#     145797
#     161882
#     180655
#     198000
#     220470
#     237005
#     247485
#     268820
#     284040
#     304495
#     320997
# 
# Disc length: 4581
# 
# Revision: 1
# Processed by: cddbd v1.5.2PL0 Copyright (c) Steve Scherf et al.
# Submitted via: fre:ac v1.0.17
# 
DISCID=3c11e315
DTITLE=Various Artist - The Best of the Blues - Martin Scorsese Presents
DYEAR=1936
DGENRE=Blues
TTITLE0=Robert Johnson - Cross Road Blues
TTITLE1=Bessie Smith - Muddy Water (A Mississippi Moan)
TTITLE2=Skip James - Devil Got My Woman
TTITLE3=Howlin' Wolf - Evil (Is Going On)
TTITLE4=Muddy Waters - (I'm Your) Hoochie Coochie Man
TTITLE5=John Lee Hooker - Boom Boom
TTITLE6=Son House - Death Letter Blues
TTITLE7=Ray Charles - Hard Times (No One Knows Better Than I)
TTITLE8=Etta James - I'd Rather Go Blind
TTITLE9=B.B. King - The Thrill Is Gone
TTITLE10=John Mayall's Blues Breakers with Eric Clapton - All Your Love
TTITLE11=Janis Joplin - One Good Man
TTITLE12=Jimi Hendrick Experience - Red House
TTITLE13=Allman Bros Band - One Way Out (live)
TTITLE14=Stevie Ray Vaughn and Double Trouble - Pride and Joy
TTITLE15=Keb' Mo' - Am I Wrong
TTITLE16=Susan Tedeschi - Just Won't Burn
TTITLE17=Los Lobos - Voodoo Music
TTITLE18=Cassandra Wilson - Vietnam Blues
TTITLE19=Bonnie Raitt - Round And Round
TTITLE20=Robert Cray and Shemekia Copeland - I Pity The Fool (live)
EXTD=
EXTT0=
EXTT1=
EXTT2=
EXTT3=
EXTT4=
EXTT5=
EXTT6=
EXTT7=
EXTT8=
EXTT9=
EXTT10=
EXTT11=
EXTT12=
EXTT13=
EXTT14=
EXTT15=
EXTT16=
EXTT17=
EXTT18=
EXTT19=
EXTT20=
PLAYORDER=
